<svg xmlns="http://www.w3.org/2000/svg" viewBox="0 0 48 48" id="bag-of-grain"><g><path fill="#df8761" d="M39.46 47H8.54a2 2 0 0 1-1.72-3L8 42a57.7 57.7 0 0 1 2-30h28a57.66 57.66 0 0 1 2 30l1.18 2a2 2 0 0 1-1.72 3Z"></path><path fill="#f29b75" d="M39.46 47H11.54a2 2 0 0 1-1.72-3L11 42a57.7 57.7 0 0 1 2-30h25a57.66 57.66 0 0 1 2 30l1.18 2a2 2 0 0 1-1.72 3Z"></path><path fill="#ffde76" d="M17 24.49v-2a1 1 0 0 1 2 0v2a1 1 0 0 1-2 0zm12 0v-2a1 1 0 0 1 2 0v2a1 1 0 0 1-2 0z"></path><rect width="32" height="4" x="8" y="8" fill="#df8761" rx="1"></rect><path fill="#f29b75" d="M40 9v1H11a1 1 0 0 1-1-1V8h29a1 1 0 0 1 1 1Z"></path><path fill="#f6ccaf" d="M36.32 8H11.68l9-6a6 6 0 0 1 6.66 0Z"></path><path fill="#ffdec7" d="M34.82 7h-9.36a3.26 3.26 0 0 1-1.81-6c2.65-.17 3.6 1 11.17 6Z"></path><path fill="#fc6" d="M25 30.49a1 1 0 0 1-1 1h-2a5 5 0 0 1-5-5c0-2.22 0-2.11.06-2.31a1 1 0 0 1 .94-.69c2 0 4.33-.31 6 2 1.19 1.57 1 3.01 1 5Z"></path><path fill="#fc6" d="M31 26.49a5 5 0 0 1-5 5h-2a1 1 0 0 1-1-1 12.06 12.06 0 0 1 .2-3.4 5 5 0 0 1 4.8-3.6c3.23 0 3-.32 3 3Z"></path><path fill="#fc6" d="M26.12 25.78c-2.32 2.32-1.95 2.29-4.24 0a5 5 0 0 1-.79-6 11.43 11.43 0 0 1 2.2-2.45 1 1 0 0 1 1.42 0l1.41 1.42a5 5 0 0 1 0 7.03Z"></path><path fill="#ffde76" d="M27.16 20.25c-.48 1.1-1 1.53-2.45 2.94a1 1 0 0 1-1.42 0c-1.29-1.29-2-1.82-2.45-2.94.43-1.05 1-1.48 2.45-3a1 1 0 0 1 1.42 0c1.29 1.33 2 1.91 2.45 3Z"></path><path fill="#fc6" d="M25 34.49v2a1 1 0 0 1-1 1h-2a5 5 0 0 1-5-5c0-3.25-.3-3 3-3a5 5 0 0 1 5 5Z"></path><path fill="#fc6" d="M31 30.49v2a5 5 0 0 1-5 5h-2a1 1 0 0 1-1-1c0-2-.28-4.25 1.91-5.92 1.6-1.28 3-1.08 5.09-1.08a1 1 0 0 1 1 1Z"></path><path fill="#ffde76" d="M25 31.49c0 3.25.3 3-3 3a5 5 0 0 1-4.94-4.31 1 1 0 0 1 .94-.69c2.05 0 3.49-.2 5.09 1.08s.2 1.24 1.82 0a4.7 4.7 0 0 1 .09.92Z"></path><path fill="#ffde76" d="M30.94 30.18A5 5 0 0 1 26 34.49h-2a1 1 0 0 1-1-1 15.61 15.61 0 0 1 .09-2.92c1.62 1.24.2 1.24 1.82 0s3-1.08 5.09-1.08a1 1 0 0 1 .94.69Z"></path><path fill="#fc6" d="M23 41v-5a1 1 0 0 1 2 0v5a1 1 0 0 1-2 0Z"></path><path fill="#ffde76" d="M25 25.49c0 3.26.3 3-3 3a5 5 0 0 1-4.94-4.31.78.78 0 0 1 .14-.29c.36-.5.66-.4 2.8-.4a5 5 0 0 1 3.09 1.08c1.62 1.24.2 1.24 1.82 0a4.7 4.7 0 0 1 .09.92Z"></path><path fill="#ffde76" d="M30.94 24.18A5 5 0 0 1 26 28.49h-2a1 1 0 0 1-1-1 15.61 15.61 0 0 1 .09-2.92c1.62 1.24.2 1.24 1.82 0A4.88 4.88 0 0 1 28 23.49c2.19 0 2.44-.1 2.8.4a.78.78 0 0 1 .14.29Z"></path><path d="m42 43.46-1-1.64A58.53 58.53 0 0 0 39.36 13 2 2 0 0 0 41 11V9a2 2 0 0 0-2-2h-2.38l-8.74-5.82a7 7 0 0 0-7.77 0L11.38 7H9a2 2 0 0 0-2 2v2a2 2 0 0 0 1.64 2 58.48 58.48 0 0 0-1.7 28.86c-1 1.6-2 2.86-1 4.66A3 3 0 0 0 8.54 48h30.92A3 3 0 0 0 42 43.46ZM21.22 2.84a5 5 0 0 1 5.55 0L33 7H15ZM9 9h30v2H9Zm31.33 36.49c-.41.73 1.87.51-31.79.51a1 1 0 0 1-.86-1.52C9 42.36 9.08 42.29 9 41.8A56.61 56.61 0 0 1 10.72 13h26.56c5.5 16.68 1.24 28.48 1.86 29.51 1.21 2.02 1.56 2.33 1.19 2.98Z"></path><path d="M29 22.49v1a7.18 7.18 0 0 0-1.61.06c.84-3.13-1.19-4.77-2.68-6.26a1 1 0 0 0-1.42 0c-1.5 1.5-3.53 3.11-2.68 6.26a6.93 6.93 0 0 0-1.61-.06v-1a1 1 0 0 0-2 0v4a5.4 5.4 0 0 0 1 3 1 1 0 0 0-1 1v2a5 5 0 0 0 5 5h1V41a1 1 0 0 0 2 0v-3.51h1a5 5 0 0 0 5-5v-2a1 1 0 0 0-1-1 5.6 5.6 0 0 0 1-3v-4a1 1 0 0 0-2 0Zm0 3v1a3 3 0 0 1-3 3h-1v-1a3 3 0 0 1 3-3Zm-5 6h-.06Zm-.74-11.37.71-.71.71.71a3 3 0 0 1 0 4.24l-.71.71-.71-.71a3 3 0 0 1 .03-4.24ZM23 28.49v1h-1a3 3 0 0 1-3-3v-1h1a3 3 0 0 1 3 3Zm-4 4v-1h1a3 3 0 0 1 3 3v1h-1a3 3 0 0 1-3-3Zm10 0a3 3 0 0 1-3 3h-1v-1a3 3 0 0 1 3-3h1Z"></path></g></svg>