<svg xmlns="http://www.w3.org/2000/svg" enable-background="new 0 0 64 64" viewBox="0 0 64 64" id="breakfast"><path fill="#6b6ba5" d="M63.21,38.82c-0.56-1.63-1.43-3.11-2.28-4.54c-1.18-2.01-2.31-3.92-2.55-6.14c-0.11-1.03-0.14-1.99-0.17-2.92
		c-0.08-2.71-0.16-5.27-2.47-8.11c-2.14-3.36-7.08-4.62-10.68-5.53c-0.52-0.13-1.01-0.26-1.46-0.38c-2.74-0.74-4.52-2.62-6.4-4.8
		c-0.05-0.07-0.11-0.12-0.18-0.17C33.11,3.53,28.23,3.45,23.63,6c-1.12,0.62-2.07,1.43-2.98,2.21c-0.79,0.67-1.54,1.31-2.33,1.78
		c-0.91,0.53-1.79,0.75-2.71,0.73c-6.26-0.21-10.48,1.14-12.85,4.12c-2.15,2.67-1.74,6-1.35,9.22c0.25,2.1,0.49,4.07,0.04,5.79
		c-0.13,0.5-0.28,1.01-0.43,1.53c-0.76,2.6-1.63,5.54-0.42,8.39c1.52,3.58,5.79,5.61,8.94,7.11c1.39,0.65,1.93,2.33,1.93,2.34
		c0.03,0.07,0.06,0.14,0.09,0.21c0.29,0.5,0.82,2.5,1.09,3.73c0.5,2.79,1.83,4.31,2.2,4.69c0.91,1.24,3.2,1.75,3.7,1.84
		c0.76,0.12,1.51,0.17,2.26,0.17c3.46,0,6.79-1.09,10.03-2.16c1.24-0.4,2.42-0.79,3.6-1.12c4.63-1.28,9.16-0.3,13.95,0.73l0.81,0.17
		c2.65,0.57,6.11,0.9,9.34-1.61C63.2,52.25,65.26,44.76,63.21,38.82z M57.35,54.34c-2.06,1.59-4.37,1.97-7.75,1.25l-0.8-0.18
		c-4.81-1.03-9.79-2.1-14.88-0.69c-1.22,0.33-2.47,0.74-3.68,1.14c-3.73,1.22-7.59,2.49-11.36,1.92c-0.85-0.17-2.18-0.64-2.48-1.09
		c-0.04-0.07-0.09-0.13-0.15-0.18c-0.01-0.02-1.25-1.2-1.7-3.73c-0.12-0.54-0.72-3.2-1.26-4.23c-0.17-0.49-0.98-2.51-2.94-3.44
		c-2.84-1.35-6.73-3.2-7.96-6.1c-0.94-2.21-0.21-4.69,0.49-7.08c0.16-0.54,0.31-1.07,0.45-1.59c0.54-2.07,0.27-4.33,0-6.51
		c-0.36-2.96-0.69-5.74,0.94-7.78c1.97-2.47,5.65-3.57,11.28-3.39c1.29,0.05,2.52-0.29,3.74-1c0.95-0.55,1.8-1.28,2.62-1.98
		c0.84-0.71,1.71-1.46,2.66-1.99c3.89-2.16,7.98-2.13,11.25,0.07c1.98,2.3,4.05,4.44,7.27,5.31c0.46,0.13,0.97,0.25,1.49,0.39
		c3.31,0.84,7.84,1.99,9.55,4.73c0.02,0.04,0.04,0.07,0.07,0.11c1.93,2.35,1.99,4.39,2.07,6.98c0.03,0.97,0.06,1.96,0.18,3.07
		c0.29,2.64,1.57,4.81,2.81,6.92c0.83,1.41,1.62,2.73,2.12,4.18C63.14,44.57,61.33,51.25,57.35,54.34z"></path><path fill="#eaeaea" d="M61.38,39.45c-0.5-1.45-1.29-2.77-2.12-4.18c-1.24-2.11-2.52-4.28-2.81-6.92c-0.12-1.11-0.15-2.1-0.18-3.07
		c-0.08-2.59-0.14-4.63-2.07-6.98c-0.03-0.04-0.05-0.07-0.07-0.11c-1.71-2.74-6.24-3.89-9.55-4.73c-0.52-0.14-1.03-0.26-1.49-0.39
		c-3.22-0.87-5.29-3.01-7.27-5.31c-3.27-2.2-7.36-2.23-11.25-0.07c-0.95,0.53-1.82,1.28-2.66,1.99c-0.82,0.7-1.67,1.43-2.62,1.98
		c-1.22,0.71-2.45,1.05-3.74,1c-5.63-0.18-9.31,0.92-11.28,3.39c-1.63,2.04-1.3,4.82-0.94,7.78c0.27,2.18,0.54,4.44,0,6.51
		c-0.14,0.52-0.29,1.05-0.45,1.59c-0.7,2.39-1.43,4.87-0.49,7.08c1.23,2.9,5.12,4.75,7.96,6.1c1.96,0.93,2.77,2.95,2.94,3.44
		c0.54,1.03,1.14,3.69,1.26,4.23c0.45,2.53,1.69,3.71,1.7,3.73c0.06,0.05,0.11,0.11,0.15,0.18c0.3,0.45,1.63,0.92,2.48,1.09
		c3.77,0.57,7.63-0.7,11.36-1.92c1.21-0.4,2.46-0.81,3.68-1.14c5.09-1.41,10.07-0.34,14.88,0.69l0.8,0.18
		c3.38,0.72,5.69,0.34,7.75-1.25C61.33,51.25,63.14,44.57,61.38,39.45z M35.89,46.31c-5.93,0-10.75-4.81-10.75-10.74
		c0-5.92,4.82-10.74,10.75-10.74c5.92,0,10.74,4.82,10.74,10.74C46.63,41.5,41.81,46.31,35.89,46.31z"></path><path fill="#d6d6d6" d="M55.79,21.2h-0.01c-3.22-0.88-5.29-3.01-7.27-5.31c-3.27-2.2-7.36-2.23-11.25-0.08
		c-0.95,0.53-1.82,1.28-2.66,1.99c-0.82,0.71-1.67,1.43-2.62,1.98c-1.22,0.71-2.45,1.05-3.74,1c-5.63-0.18-9.31,0.92-11.28,3.4
		c-1.63,2.03-1.3,4.81-0.94,7.77c0.27,2.19,0.54,4.45,0,6.51c-0.14,0.52-0.29,1.06-0.45,1.59c-0.7,2.4-1.43,4.88-0.49,7.09
		c1.23,2.89,5.12,4.75,7.96,6.09c1.96,0.94,2.77,2.96,2.94,3.45c0.06,0.12,0.13,0.27,0.19,0.43c-2.43,0.65-4.88,1.03-7.29,0.67
		c-0.85-0.17-2.18-0.64-2.48-1.09c-0.04-0.07-0.09-0.13-0.15-0.18c-0.01-0.02-1.25-1.2-1.7-3.73c-0.12-0.54-0.72-3.2-1.26-4.23
		c-0.17-0.49-0.98-2.51-2.94-3.44c-2.84-1.35-6.73-3.2-7.96-6.1c-0.94-2.21-0.21-4.69,0.49-7.08c0.16-0.54,0.31-1.07,0.45-1.59
		c0.54-2.07,0.27-4.33,0-6.51c-0.36-2.96-0.69-5.74,0.94-7.78c1.97-2.47,5.65-3.57,11.28-3.39c1.29,0.05,2.52-0.29,3.74-1
		c0.95-0.55,1.8-1.28,2.62-1.98c0.84-0.71,1.71-1.46,2.66-1.99c3.89-2.16,7.98-2.13,11.25,0.07c1.98,2.3,4.05,4.44,7.27,5.31
		c0.46,0.13,0.97,0.25,1.49,0.39c3.31,0.84,7.84,1.99,9.55,4.73c0.02,0.04,0.04,0.07,0.07,0.11C55.03,19.3,55.5,20.24,55.79,21.2z"></path><path fill="#6b6ba5" d="M35.89,24.83c-5.93,0-10.75,4.82-10.75,10.74c0,5.93,4.82,10.74,10.75,10.74c5.92,0,10.74-4.81,10.74-10.74
		C46.63,29.65,41.81,24.83,35.89,24.83z M35.89,44.38c-4.86,0-8.81-3.95-8.81-8.81c0-4.85,3.95-8.8,8.81-8.8
		c4.85,0,8.8,3.95,8.8,8.8C44.69,40.43,40.74,44.38,35.89,44.38z"></path><path fill="#ffdc7c" d="M44.69,35.57c0,4.86-3.95,8.81-8.8,8.81c-4.86,0-8.81-3.95-8.81-8.81c0-4.85,3.95-8.8,8.81-8.8
		C40.74,26.77,44.69,30.72,44.69,35.57z"></path><path fill="#ecc25d" d="M44.09,32.38c-1.32-0.8-2.87-1.26-4.53-1.26c-4.86,0-8.81,3.95-8.81,8.8c0,1.13,0.21,2.21,0.6,3.2
		c-2.56-1.54-4.27-4.35-4.27-7.55c0-4.85,3.95-8.8,8.81-8.8C39.62,26.77,42.81,29.1,44.09,32.38z"></path></svg>