<svg xmlns="http://www.w3.org/2000/svg" enable-background="new 0 0 512 512" viewBox="0 0 512 512" id="chili-sauce"><path fill="#283954" d="M311.798,512H200.202C160.389,512,128,479.611,128,439.798v-120.36
			c0-4.159,3.371-7.529,7.529-7.529c4.159,0,7.529,3.371,7.529,7.529v120.36c0,31.509,25.634,57.143,57.143,57.143h111.596
			c31.509,0,57.143-25.634,57.143-57.143v-161.21c0-41.686-20.386-80.847-54.534-104.756c-6.38-4.459-11.659-10.473-15.26-17.386
			c-3.598-6.908-5.5-14.678-5.5-22.473V90.353h-75.294v43.621c0,15.874-7.763,30.775-20.766,39.863
			c-33.389,23.387-54.528,62.123-54.528,104.752v5.713c0,4.159-3.371,7.529-7.529,7.529c-4.159,0-7.529-3.371-7.529-7.529v-5.713
			c0-45.53,21.895-89.735,60.955-117.091c8.981-6.276,14.339-16.564,14.339-27.524v-51.15c0-4.159,3.371-7.529,7.529-7.529h90.353
			c4.159,0,7.529,3.371,7.529,7.529v51.15c0,10.877,5.284,21.195,14.332,27.52C361.213,188.221,384,231.993,384,278.588v161.21
			C384,479.611,351.611,512,311.798,512z"></path><path fill="#da5461" d="M301.595,90.353h-91.19c-12.225,0-22.17-9.945-22.17-22.17V22.17c0-12.225,9.945-22.17,22.17-22.17
			h91.19c12.225,0,22.17,9.945,22.17,22.17v46.014C323.765,80.408,313.82,90.353,301.595,90.353z M210.405,15.059
			c-3.921,0-7.111,3.19-7.111,7.111v46.014c0,3.921,3.19,7.111,7.111,7.111h91.19c3.921,0,7.111-3.19,7.111-7.111V22.17
			c0-3.921-3.19-7.111-7.111-7.111H210.405z"></path><path fill="#283954" d="M301.778 451.765H135.68c-4.159 0-7.529-3.371-7.529-7.529s3.371-7.529 7.529-7.529h166.098c4.159 0 7.529 3.371 7.529 7.529S305.937 451.765 301.778 451.765zM376.32 451.765h-39.404c-4.159 0-7.529-3.371-7.529-7.529s3.371-7.529 7.529-7.529h39.404c4.159 0 7.529 3.371 7.529 7.529S380.478 451.765 376.32 451.765zM371.129 248.471H140.871c-4.159 0-7.529-3.371-7.529-7.529s3.371-7.529 7.529-7.529h230.259c4.159 0 7.529 3.371 7.529 7.529S375.288 248.471 371.129 248.471z"></path><path fill="#da5461" d="M188.7,375.456c31.108-11.143,51.11-39.387,62.412-61.119c8.942-17.18,29.121-24.568,46.938-17.185
			c22.036,9.137,29.641,36.336,15.811,55.661c-5.907,8.247-12.455,16.118-19.463,23.398c-29.449,30.568-65.332,33.612-99.562,34.11
			C174.57,410.766,169.745,382.243,188.7,375.456z M264.472,321.287c-12.544,24.12-34.992,55.557-70.694,68.345
			c-1.18,0.423-1.943,1.451-1.943,2.62c0.377,1.414,0.575,3.084,2.782,3.012c37.892-0.552,65.986-5.679,88.934-29.498
			c6.504-6.757,12.582-14.065,18.066-21.719c8.247-11.526,3.652-27.599-9.332-32.984
			C281.697,306.678,269.761,311.122,264.472,321.287z"></path><path fill="#da5461" d="M298.095,313.106c-1.077-4.017,1.306-8.145,5.323-9.223c3.123-0.837,13.568-4.961,16.874-22.867
			c0.755-4.09,4.68-6.789,8.771-6.037c4.089,0.755,6.792,4.681,6.037,8.771c-4.906,26.58-22.504,33.264-27.781,34.678
			C303.316,319.504,299.175,317.134,298.095,313.106z"></path><path fill="#283954" d="M341.916 195.765H170.084c-4.159 0-7.529-3.371-7.529-7.529 0-4.159 3.371-7.529 7.529-7.529h171.831c4.159 0 7.529 3.371 7.529 7.529C349.445 192.394 346.075 195.765 341.916 195.765zM301.207 143.059h-90.414c-4.159 0-7.529-3.371-7.529-7.529 0-4.159 3.371-7.529 7.529-7.529h90.414c4.159 0 7.529 3.371 7.529 7.529C308.736 139.688 305.366 143.059 301.207 143.059z"></path></svg>