<svg xmlns="http://www.w3.org/2000/svg" viewBox="0 0 468 468" id="cooking"><path fill="#fbab68" d="m95.114 77.719 72.618 88.696c11.703-3 25.907 1.1 36.609 11.699 14.804 14.799 17.004 36.598 4.901 48.698-12.103 12.099-33.909 9.9-48.712-4.9-10.903-10.899-15.004-25.699-11.503-37.498l-88.723-71.697c-11.503-9.3-12.403-26.399-1.9-36.898 10.304-10.3 27.408-9.4 36.71 1.9z"></path><path fill="#ea8e49" d="M173.531 214.912c-9.651-9.648-13.972-22.352-12.409-33.326.392-2.753-.738-5.501-2.9-7.249l-84.916-68.62C61.896 96.494 60.924 79.6 71.157 69.08a24.403 24.403 0 0 0-12.752 6.739c-10.502 10.499-9.602 27.599 1.901 36.898l88.722 71.696c-3.501 11.799.6 26.599 11.503 37.498 14.776 14.771 36.525 16.988 48.642 4.966-11.494 2.569-25.281-1.607-35.642-11.965z"></path><path fill="#fbab68" d="M361.882 377.904H106.217v50.698c0 18.999 57.215 34.398 127.833 34.398s127.833-15.399 127.833-34.398l-.001-50.698z"></path><path fill="#ea8e49" d="M124.217 397.903h237.665v-19.999H106.217v50.698c0 6.436 6.572 12.458 18 17.609v-48.308z"></path><ellipse cx="234.05" cy="387.504" fill="#fff" rx="127.833" ry="45.098"></ellipse><path fill="#e0e0e0" d="M347.078 388.904H121.021c-22.106 0-40.01-17.899-40.01-39.998V196.513h306.078v152.393c0 22.099-17.905 39.998-40.011 39.998z"></path><path fill="#c9c9c9" d="M101.011 348.906V196.513h-20v152.393c0 22.099 17.905 39.998 40.01 39.998h20c-22.106 0-40.01-17.899-40.01-39.998z"></path><path fill="#f7f7f7" d="M386.188 330.607c-1.3-17.699-16.104-31.698-34.209-31.698-7.802 0-15.004 2.6-20.805 7-.1-18.799-15.404-34.098-34.309-34.098-13.904 0-25.907 8.3-31.308 20.299v-.5c0-19.999-16.204-36.298-36.309-36.298-16.404 0-30.208 10.899-34.709 25.799-6.102-5.8-14.404-9.3-23.506-9.3-18.905 0-34.109 15.199-34.309 34.098-5.801-4.4-13.003-7.3-20.805-7-31.008 1.1-35.109 31.698-35.109 31.698v18.299c0 22.099 17.905 39.998 40.01 39.998h226.258c22.106 0 40.01-17.899 40.01-39.998v-18.299h-.9z"></path><path fill="#ededed" d="M98.811 348.906v-18.299s3.327-24.718 26.527-30.513c-2.996-.87-6.153-1.311-9.418-1.186-31.008 1.1-35.109 31.699-35.109 31.699v18.299c0 22.099 17.905 39.998 40.01 39.998h18c-22.106 0-40.01-17.899-40.01-39.998z"></path><circle cx="184.037" cy="338.306" r="15.799" fill="#ed4848"></circle><path fill="#333" d="M184.037 359.105c-11.472 0-20.805-9.331-20.805-20.799s9.333-20.799 20.805-20.799 20.804 9.33 20.804 20.799-9.332 20.799-20.804 20.799zm0-31.598c-5.958 0-10.805 4.845-10.805 10.799 0 5.955 4.847 10.8 10.805 10.8 5.957 0 10.804-4.845 10.804-10.8 0-5.955-4.847-10.799-10.804-10.799z"></path><circle cx="277.561" cy="338.306" r="15.799" fill="#ed4848"></circle><path fill="#333" d="M277.561 359.105c-11.472 0-20.804-9.331-20.804-20.799s9.332-20.799 20.804-20.799 20.804 9.33 20.804 20.799-9.333 20.799-20.804 20.799zm0-31.598c-5.957 0-10.804 4.845-10.804 10.799 0 5.955 4.847 10.8 10.804 10.8s10.804-4.845 10.804-10.8c-.001-5.955-4.847-10.799-10.804-10.799z"></path><circle cx="125.622" cy="248.511" r="15.799" fill="#9ccc65"></circle><path fill="#333" d="M125.622 269.309c-11.472 0-20.804-9.33-20.804-20.799s9.332-20.799 20.804-20.799 20.804 9.33 20.804 20.799-9.332 20.799-20.804 20.799zm0-31.598c-5.957 0-10.804 4.844-10.804 10.799 0 5.955 4.847 10.799 10.804 10.799s10.804-4.844 10.804-10.799c0-5.954-4.847-10.799-10.804-10.799z"></path><circle cx="341.777" cy="248.511" r="15.799" fill="#ffd766"></circle><path fill="#333" d="M341.777 269.309c-11.472 0-20.805-9.33-20.805-20.799s9.333-20.799 20.805-20.799 20.804 9.33 20.804 20.799-9.332 20.799-20.804 20.799zm0-31.598c-5.958 0-10.805 4.844-10.805 10.799 0 5.955 4.847 10.799 10.805 10.799 5.957 0 10.804-4.844 10.804-10.799 0-5.954-4.847-10.799-10.804-10.799z"></path><ellipse cx="181" cy="338.306" fill="#cc4040" rx="3" ry="4"></ellipse><ellipse cx="279.5" cy="338.306" fill="#cc4040" rx="3" ry="4"></ellipse><path fill="#e0e0e0" d="M407.994 270.71h-20.905v-42.298h20.805c11.703 0 21.105 9.5 21.105 21.099.1 11.699-9.402 21.199-21.005 21.199z"></path><path fill="#c9c9c9" d="M407.994 254.71h-20.905v15.999h20.905c11.603 0 21.105-9.5 21.005-21.199 0-2.796-.557-5.464-1.55-7.912-3.136 7.692-10.693 13.112-19.455 13.112z"></path><path fill="#e0e0e0" d="M60.105 270.71H81.01v-42.298H60.105c-11.703 0-21.105 9.5-21.105 21.099 0 11.699 9.502 21.199 21.105 21.199z"></path><path fill="#c9c9c9" d="M40.579 241.521a21 21 0 0 0-1.579 7.99c0 11.699 9.502 21.199 21.105 21.199H81.01v-16H60.105c-8.791 0-16.366-5.458-19.526-13.189z"></path><path fill="#80deea" d="M252.054 410.303c0 12.199-10.103 22.099-22.606 22.099-12.503 0-22.606-9.9-22.606-22.099s22.606-35.798 22.606-35.798 22.606 23.598 22.606 35.798z"></path><path fill="#74bfc8" d="M242.661 419.485c0 7.13-5.905 12.916-13.213 12.916-7.308 0-13.213-5.786-13.213-12.916 0-7.13 13.213-20.923 13.213-20.923s13.213 13.793 13.213 20.923z"></path><path fill="#80deea" d="M148.928 386.904c0 11.299-9.502 20.499-21.305 20.499s-21.305-9.2-21.305-20.499 21.305-33.198 21.305-33.198 21.305 21.898 21.305 33.198z"></path><path fill="#74bfc8" d="M140.835 394.907c0 7.13-5.905 12.916-13.213 12.916s-13.213-5.786-13.213-12.916c0-7.13 13.213-20.923 13.213-20.923s13.213 13.793 13.213 20.923z"></path><path fill="#80deea" d="M361.782 389.004c0 11.299-9.502 20.499-21.305 20.499-11.803 0-21.305-9.2-21.305-20.499s21.305-33.198 21.305-33.198 21.305 21.898 21.305 33.198z"></path><path fill="#74bfc8" d="M353.689 396.907c0 7.13-5.905 12.916-13.213 12.916s-13.213-5.786-13.213-12.916c0-7.13 13.213-20.923 13.213-20.923s13.213 13.793 13.213 20.923z"></path><path fill="#333" d="M407.894 223.412h-15.805v-26.899a5 5 0 0 0-5-5H219.027c-7.477-19.133-28.349-33.966-49.341-30.605L98.983 74.552C87.798 61.425 67.278 59.88 54.87 72.283c-12.358 12.355-11.316 33.32 2.293 44.323l86.267 69.712a35.376 35.376 0 0 0-.573 5.196H81.011a5 5 0 0 0-5 5v26.899H60.105C45.711 223.412 34 235.12 34 249.511c0 14.446 11.711 26.199 26.105 26.199H76.01v53.212c-1.069 6.421-.2 13.493-.2 19.984 0 17.789 10.384 33.192 25.406 40.491v39.206c0 11.83 14.225 21.91 41.136 29.152C166.905 464.361 199.471 468 234.05 468s67.145-3.639 91.697-10.246c26.91-7.242 41.135-17.322 41.135-29.152v-39.315c14.914-7.337 25.207-22.673 25.207-40.382v-73.196h15.905c14.172 0 26.127-12.014 26.005-26.199 0-14.39-11.711-26.098-26.105-26.098zM76.011 265.71H60.105c-8.881 0-16.105-7.267-16.105-16.199 0-8.877 7.225-16.099 16.105-16.099H76.01v32.298zM63.449 108.829c-9.092-7.351-9.762-21.224-1.509-29.475 8.112-8.11 22.035-7.294 29.309 1.536l72.614 88.691a5.003 5.003 0 0 0 5.11 1.676c15.57-3.99 32.075 6.782 39.102 20.256h-55.227c.115-1.943.43-3.847.974-5.677a5.002 5.002 0 0 0-1.651-5.311l-88.722-71.696zm293.433 319.773c0 4.806-8.835 12.795-33.733 19.496-23.73 6.386-55.373 9.902-89.099 9.902s-65.369-3.517-89.099-9.903c-24.899-6.7-33.734-14.69-33.734-19.496v-21.794c7.443 8.666 20.319 13.611 30.777 17.3 24.665 8.701 57.358 13.493 92.056 13.493s67.39-4.792 92.055-13.493c10.213-3.603 22.173-8.528 30.777-15.207v19.702zm-149.467-1.995c-29.739-2.253-54.324-8.156-71.198-15.609 8.051-2.706 14.322-9.107 16.682-17.094h54.957c-6.416 10.606-8.524 22.203-.441 32.703zm-79.793-24.204c-8.99 0-16.305-6.953-16.305-15.499 0-5.497 8.634-17.271 16.307-25.86 7.671 8.582 16.304 20.352 16.304 25.86 0 8.546-7.315 15.499-16.306 15.499zm84.221 7.9c0-6.097 9.369-19.068 17.605-28.403 8.236 9.335 17.606 22.306 17.606 28.403 0 9.429-7.898 17.099-17.606 17.099s-17.605-7.671-17.605-17.099zm39.199-16.4h63.633c1.628 8.063 7.177 14.781 14.649 18.187-18.636 7.712-45.751 13.574-78.316 15.108 8.581-10.528 6.588-22.458.034-33.295zm73.129-4.899c0-5.497 8.635-17.271 16.307-25.86 7.672 8.583 16.305 20.353 16.305 25.86 0 8.546-7.314 15.499-16.306 15.499s-16.306-6.953-16.306-15.499zm40.032-9.594c-5.302-11.446-17.216-24.084-20.142-27.091-2.389-2.018-4.779-2.018-7.168 0-3.316 3.409-18.193 19.191-21.888 31.585h-70.893a167.671 167.671 0 0 0-11.054-12.858c-2.407-2.055-4.814-2.055-7.221 0a167.554 167.554 0 0 0-11.053 12.858h-61.179c-2.467-12.639-18.893-30.08-22.4-33.684-2.389-2.018-4.779-2.018-7.168 0-3.045 3.13-15.823 16.692-20.75 28.485-9.871-6.208-17.478-17.337-17.478-29.799v-17.933c.488-3.059 5.019-26.172 30.302-27.069 7.627-.291 13.776 3.094 17.591 5.987 3.214 2.437 7.978.102 8.021-3.931.262-24.766 31.063-38.632 49.37-21.227 2.655 2.522 7.172 1.328 8.231-2.178 10.123-33.508 61.231-25.942 61.231 9.054.186 4.919 7.122 7.966 9.56 2.552 12.594-27.975 55.893-18.928 56.058 11.774.021 4.046 4.799 6.4 8.021 3.957 5.161-3.914 11.311-5.984 17.783-5.984 15.271 0 28.107 11.889 29.223 27.066.432 5.867.887 11.85.887 17.932.002 13.081-7.221 24.5-17.884 30.504zm17.886-71.405c-11.329-13.467-30.869-17.898-46.838-10.385-6.656-30.032-45.356-40.888-66.697-18.731-11.119-34.253-60.046-38.231-76.183-5.83-22.614-14.655-53.769-1.564-59.679 24.515-15.654-7.597-35.473-2.954-46.682 10.149v-106.21h296.078v106.492zm37.263-47.045c-3.037 3.063-7.07 4.75-11.357 4.75H392.09v-32.299h15.805c13.947 0 21.336 17.586 11.457 27.549z"></path><path fill="#fbe9e7" d="M176.502 25.612c4.86-6.79.023-16.264-8.326-16.449-1.447-.032-2.439.035-2.63.258-.019-.091-.174-.281-.447-.556-9.139-9.21-24.686-.554-21.903 12.117.258 1.176.477 1.911.636 2.04-.245.012-.595.311-1.02.824-6.321 7.643 1.014 19.159 10.613 16.659.907-.236 1.508-.527 1.664-.885l19.85 35.031 17.826-10.482-19.85-35.031c.727.078 2.058-1.39 3.587-3.526z"></path><path fill="#333" d="M150.509 37.612zm-6.434-9.596h-.006.006zm.006 0h-.003.003zm.005 0h-.002.002zm2.893-8.878.002.001-.002-.001zm13.681-8.652.001.001-.001-.001zm-.001-.007v.002-.002z"></path><path fill="#f8bbd0" d="M226.328 92.53c1.87-11.338-2.751-22.793-12.024-29.584-13.239-9.696-32.049-20.808-42.437-14.933-10.377 5.869-9.975 27.345-8.033 43.421 1.367 11.313 8.988 20.892 19.668 24.873l1.83.682c18.04 6.725 37.735-4.691 40.867-23.682l.129-.777z"></path><path fill="#daa9ba" d="m200.332 107.99-1.83-.682c-10.68-3.981-18.301-13.56-19.668-24.873-1.432-11.858-2.021-26.647 1.93-35.951-3.33-.32-6.365.097-8.897 1.529-10.377 5.869-9.975 27.345-8.033 43.421 1.367 11.313 8.988 20.892 19.668 24.873l1.83.682c12.217 4.554 25.186.781 33.263-8.022-5.802 1.495-12.127 1.31-18.263-.977z"></path><path fill="#333" d="M217.258 58.912c-12.127-8.881-22.514-14.395-31.085-16.519l-6.889-12.158c3.989-4.991 5.473-11.578 2.512-17.501-2.741-5.482-8.422-8.575-14.444-8.584-5.649-4.734-13.313-5.502-19.975-1.873-7.032 3.831-10.672 11.561-9.154 19.345-3.587 5.075-3.733 11.64-.291 17.044 3.311 5.196 9.004 7.837 14.864 7.049l6.892 12.163c-2.28 8.314-2.561 19.72-.817 34.156 3.054 25.271 33.059 39.796 54.994 27.083 21.883-12.682 23.897-45.19 3.393-60.205zm-57.819-21.757c-1.501-2.649-5.087-3.347-7.474-1.44-3.281.742-5.111-1.655-5.6-2.422-.481-.754-1.85-3.354.134-6.042 2.273-1.672 2.864-3.848 1.773-6.526-1.035-3.882.289-7.707 3.887-9.667 2.495-1.359 6.215-1.744 9.295 1.237 1.526 1.893 3.421 2.515 5.685 1.865 2.267-.056 4.635.893 5.712 3.046 1.346 2.697-.024 5.312-1.828 7.303-2.665 1.09-3.87 4.6-2.459 7.093l5.793 10.223a16.995 16.995 0 0 0-9.254 5.326l-5.664-9.996zm61.956 54.561c-1.089 7.787-5.726 14.797-12.545 18.75-15.811 9.164-37.842-1.352-40.052-19.631-2.503-20.714-.436-35.095 5.531-38.47 10.536-5.96 29.517 9.119 37.021 14.615 7.773 5.692 11.623 15.17 10.045 24.736z"></path><path fill="#fbe9e7" d="m343.013 63.808-34.707 20.413 10.196 17.99 34.707-20.413c-.044.388.331.94.998 1.598 7.063 6.965 19.174.659 17.521-9.121-.111-.657-.265-1.091-.471-1.223.203-.032.76-.559 1.571-1.449 8.746-9.582-.39-24.852-12.91-21.445-.374.102-.604.189-.666.258-.054-.288-.879-.843-2.149-1.539-7.323-4.014-16.25 1.772-15.436 10.082.257 2.616.675 4.553 1.346 4.849z"></path><path fill="#333" d="M358.178 82.35zm10.375-5.091-.005-.003.005.003zm-.008-.004-.002-.002.002.002zm-.004-.004-.002-.001.002.001zm1.93-9.136h.002-.002zm-7.522-14.332.002-.001-.002.001zm.005-.005.001-.002-.001.002z"></path><path fill="#f8bbd0" d="M265.057 92.002c4.05-10.754 13.779-18.364 25.206-19.609 16.314-1.777 38.159-1.996 44.218 8.285 6.052 10.271-5.034 28.669-14.755 41.62-6.84 9.114-18.23 13.599-29.47 11.707l-1.926-.324c-18.985-3.196-30.334-22.929-23.551-40.942l.278-.737z"></path><path fill="#daa9ba" d="m279.839 118.388 1.926.324c11.24 1.892 22.63-2.593 29.47-11.707 7.17-9.553 15.074-22.067 16.305-32.099 3.044 1.388 5.464 3.266 6.94 5.772 6.052 10.271-5.034 28.669-14.755 41.62-6.841 9.114-18.23 13.599-29.47 11.707l-1.926-.324c-12.857-2.164-22.202-11.916-24.795-23.578 4.278 4.195 9.848 7.198 16.305 8.285z"></path><path fill="#333" d="M262.556 121.259c12.64 21.976 45.887 24.399 61.169 4.041 8.729-11.63 14.189-21.648 16.371-29.988l12.05-7.087c4.681 3.613 10.932 4.172 16.397 1.327 5.683-2.959 8.839-8.718 8.27-14.906 5.206-5.982 5.92-14.497 1.745-21.33-3.955-6.473-10.976-9.64-18.235-8.364-5.22-3.003-11.687-3.165-16.801.212-5.526 3.649-7.535 10.095-6.576 16.412L324.9 68.661c-8.485-2.446-20.237-2.864-35.18-1.236-25.264 2.749-39.775 31.909-27.164 53.834zm78.214-37.945a16.996 16.996 0 0 0-5.351-9.239l10.128-5.957c2.469-1.453 3.18-5.096 1.417-7.372-.567-2.626-.446-5.576 2.068-7.238 2.009-1.326 4.534-.964 6.47.218 1.636 1.694 3.587 2.103 5.856 1.227 4.158-1.041 7.187 1.152 8.668 3.576 2.136 3.495 1.37 7.47-1.467 10.315-2.283 1.774-2.859 3.954-1.727 6.538.374 3.319-2.111 4.887-2.905 5.3-.806.42-3.59 1.58-6.06-.702-1.113-2.845-4.568-4.033-7.192-2.49l-9.905 5.824zm-49.966-5.95c9.246-1.008 33.224-4.577 39.369 5.852 3.48 5.906-1.92 19.394-14.446 36.081-11.054 14.726-35.391 12.817-44.502-3.024-3.929-6.832-4.439-15.221-1.489-22.51 3.416-9.072 11.49-15.356 21.068-16.399zM242.661 167.472a5 5 0 0 1-5-5V147.63a5 5 0 1 1 10 0v14.843a5 5 0 0 1-5 4.999zM274.661 177.472a5 5 0 0 1-5-5v-14.843a5 5 0 1 1 10 0v14.843a5 5 0 0 1-5 5z"></path></svg>