<svg xmlns="http://www.w3.org/2000/svg" enable-background="new 0 0 64 64" viewBox="0 0 64 64" id="juice-cup"><path fill="#2c2e63" d="M49.8,0.5c-0.3-0.5-0.9-0.6-1.3-0.3L38.6,6c-0.2,0.1-0.4,0.4-0.5,0.7l-1.9,9.6H16.2c-0.5,0-0.9,0.3-0.9,0.8
		l-1.1,5.7c-0.1,0.3,0,0.6,0.2,0.8c0.2,0.2,0.5,0.4,0.8,0.4h0.6l4,37.7c0.1,1.4,1.3,2.4,2.7,2.4H40c1.4,0,2.5-1,2.7-2.4l4-37.7h0.6
		c0.3,0,0.6-0.1,0.8-0.4c0.2-0.2,0.3-0.5,0.2-0.8l-1.1-5.7c-0.1-0.4-0.5-0.8-1-0.8h-7.9L40,7.5l9.5-5.7C49.9,1.5,50.1,0.9,49.8,0.5z
		 M40.8,61.4c0,0.4-0.4,0.7-0.8,0.7H22.3c-0.4,0-0.7-0.3-0.8-0.7l-4-37.5h27.1L40.8,61.4z M45.3,18.3l0.8,3.7H16.2l0.7-3.7H45.3z"></path><polygon fill="#ecc25e" points="46.1 22 16.2 22 17 18.3 45.3 18.3"></polygon><path fill="#ffdb7c" d="M17.6,23.9l4,37.5c0,0.4,0.4,0.7,0.8,0.7H40c0.4,0,0.7-0.3,0.8-0.7l4-37.5H17.6z M31.2,52.6
		c-5.3,0-9.6-4.3-9.6-9.6c0-5.3,4.3-9.7,9.6-9.7c5.3,0,9.6,4.3,9.6,9.7C40.8,48.3,36.5,52.6,31.2,52.6z"></path><path fill="#ecc25e" d="M44.7,23.9l-4,37.5c0,0.4-0.4,0.7-0.8,0.7H22.3c-0.4,0-0.7-0.3-0.8-0.7l-4-37.5H20l1.6,17.4
		c-0.1,0.5-0.1,1.1-0.1,1.7c0,1.2,0.2,2.3,0.6,3.4l1.2,12.5c0,0.4,0.3,0.6,0.6,0.6h14.5c0.3,0,0.6-0.3,0.6-0.6l1.2-12.6
		c0.4-1,0.6-2.2,0.6-3.3c0-0.5,0-1.1-0.1-1.6l1.6-17.5H44.7z"></path><path fill="#2c2e63" d="M31.2,33.3c-5.3,0-9.6,4.3-9.6,9.7c0,5.3,4.3,9.6,9.6,9.6c5.3,0,9.6-4.3,9.6-9.6
		C40.8,37.7,36.5,33.3,31.2,33.3z M31.2,50.7c-4.3,0-7.7-3.5-7.7-7.7c0-4.3,3.5-7.7,7.7-7.7c4.2,0,7.7,3.5,7.7,7.7
		C38.9,47.2,35.4,50.7,31.2,50.7z"></path><path fill="#33aa4a" d="M38.9,43c0,4.2-3.5,7.7-7.7,7.7c-4.3,0-7.7-3.5-7.7-7.7c0-4.3,3.5-7.7,7.7-7.7C35.4,35.3,38.9,38.7,38.9,43z"></path><path fill="#289646" d="M31.2,35.3c-4.3,0-7.7,3.5-7.7,7.7c0,4.2,3.5,7.7,7.7,7.7c4.2,0,7.7-3.5,7.7-7.7
		C38.9,38.7,35.4,35.3,31.2,35.3z M31.2,48.7c-3.1,0-5.7-2.6-5.7-5.7c0-3.2,2.6-5.7,5.7-5.7s5.7,2.6,5.7,5.7
		C36.9,46.1,34.3,48.7,31.2,48.7z"></path></svg>