<svg xmlns="http://www.w3.org/2000/svg" enable-background="new 0 0 64 64" viewBox="0 0 64 64" id="pan"><path fill="#f4b2b0" d="M36 27.75L36 27.75c0-2.071-1.679-3.75-3.75-3.75h0c-.811 0-1.601.263-2.25.75l-2.337 1.753C24.636 28.773 20.955 30 17.171 30h0c-2.097 0-4.177-.377-6.14-1.113L6 27v0c0 1.874.937 3.625 2.496 4.664l0 0C12.736 34.491 17.718 36 22.815 36h.833c3.481 0 6.875-1.088 9.708-3.111l0 0C35.015 31.704 36 29.79 36 27.75zM41.2 45.8l6.166-3.363C49.094 41.494 51.031 41 53 41h0 9v0c0 3.314-2.686 6-6 6h-.39c-2.975 0-5.851 1.064-8.11 3l0 0c-2.103 1.803-4.742 2.849-7.497 2.985"></path><rect width="2" height="2" x="28" y="53" fill="#b3404a"></rect><path fill="#b3404a" d="M62,40h-9c-2.129,0-4.243,0.539-6.113,1.559l-4.363,2.38l0.462-2.775
		c0.048-0.29-0.033-0.586-0.223-0.811S42.294,40,42,40H2c-0.294,0-0.573,0.129-0.763,0.354s-0.271,0.521-0.223,0.811l2.014,12.082
		C3.68,57.16,7.033,60,11,60h22c3.738,0,6.928-2.522,7.831-6.087c2.688-0.292,5.263-1.391,7.32-3.153
		c2.076-1.78,4.726-2.76,7.459-2.76H56c3.86,0,7-3.141,7-7C63,40.447,62.552,40,62,40z M33,58H11c-2.986,0-5.509-2.138-6-5.082
		L3.181,42h37.639L39,52.918C38.509,55.862,35.986,58,33,58z M56,46h-0.39c-3.21,0-6.322,1.151-8.761,3.241
		c-1.6,1.371-3.569,2.269-5.643,2.604l0.9-5.401l5.739-3.13C49.422,42.454,51.205,42,53,42h7.899C60.435,44.279,58.415,46,56,46z"></path><path fill="#b3404a" d="M34.38 50.899C34.23 52.097 33.207 53 32 53v2c2.214 0 4.09-1.656 4.364-3.853l.628-5.023-1.984-.248L34.38 50.899zM6.351 26.063c-.306-.115-.65-.072-.92.114C5.161 26.365 5 26.672 5 27c0 2.213 1.1 4.268 2.941 5.496C12.36 35.442 17.503 37 22.814 37h.833c3.711 0 7.269-1.141 10.289-3.298C35.855 32.332 37 30.107 37 27.75c0-.843-.239-1.623-.625-2.31C37.427 24.025 38 22.308 38 20.528V19h-2v1.528c0 1.204-.356 2.365-.999 3.364C34.223 23.336 33.277 23 32.25 23c-.128 0-.254.021-.381.031C31.955 22.432 32 21.828 32 21.223c0-1.603-.302-3.17-.897-4.657-.669-1.674-.724-3.538-.154-5.249.102-.306.05-.641-.138-.901S30.321 10 30 10c-2.601 0-4.744 1.996-4.979 4.536C24.358 13.657 24 12.592 24 11.472c0-3.14-1.745-5.962-4.553-7.366-.31-.154-.678-.139-.973.044C18.179 4.332 18 4.653 18 5c0 2.436-.663 4.827-1.916 6.915-.637 1.062-1.004 2.262-1.073 3.494l-1.154-1.924c-.176-.294-.491-.477-.833-.485-.367.007-.666.16-.856.445C10.75 15.572 10 18.049 10 20.605c0 2.949 1.103 5.721 3.095 7.872-.577-.148-1.15-.316-1.713-.527L6.351 26.063zM35 27.75c0 1.713-.832 3.329-2.226 4.325C30.095 33.988 26.939 35 23.647 35h-.833c-4.915 0-9.674-1.441-13.764-4.168-.84-.561-1.458-1.367-1.786-2.29l3.415 1.281C12.762 30.604 14.946 31 17.171 31c.273 0 .545-.021.817-.034.011.001.021.003.032.004l0-.006c3.681-.173 7.29-1.448 10.243-3.662l2.337-1.753C31.072 25.195 31.658 25 32.25 25 33.767 25 35 26.233 35 27.75zM24.411 27.308c-1.819.887-3.794 1.447-5.812 1.625C18.212 28.091 18 27.168 18 26.242c0-1.179.459-2.287 1.293-3.121.582-.581 1.03-1.282 1.321-2.044C21.512 22.185 22 23.555 22 25c0 .321.154.623.416.812.261.187.595.239.901.137l1.581-.526C24.804 26.065 24.631 26.693 24.411 27.308zM13.025 15.986l2.117 3.528c.232.386.69.569 1.125.449C16.7 19.844 17 19.449 17 19v-3.169c0-1.017.276-2.015.799-2.887 1.13-1.883 1.842-3.98 2.096-6.148C21.221 7.961 22 9.646 22 11.472c0 1.897.739 3.681 2.081 5.022l1.212 1.213c.285.286.715.372 1.09.217C26.756 17.77 27 17.404 27 17v-2c0-1.174.678-2.192 1.662-2.685-.249 1.677-.052 3.402.584 4.992.5 1.251.754 2.568.754 3.915 0 .862-.122 1.717-.327 2.555-.091.059-.187.107-.273.172l-2.337 1.753c-.072.054-.148.099-.221.152C26.939 25.244 27 24.626 27 24c0-.321-.154-.623-.416-.812-.262-.188-.596-.24-.901-.137l-1.793.598c-.277-1.688-1.071-3.244-2.305-4.478l-.879-.879c-.287-.286-.716-.373-1.09-.217C19.244 18.23 19 18.596 19 19c0 1.008-.409 1.994-1.121 2.707C16.667 22.919 16 24.529 16 26.242c0 .746.112 1.49.308 2.211-.549-.265-1.057-.616-1.493-1.053C13 25.586 12 23.173 12 20.605 12 18.996 12.351 17.426 13.025 15.986z"></path></svg>