<svg xmlns="http://www.w3.org/2000/svg" viewBox="0 0 64 64" id="vegetables"><path fill="#f0aeac" d="M59 15a5.979 5.979 0 00-2.025-4.486A6 6 0 0051 5c-.173 0-.344.012-.513.026A5.994 5.994 0 0040 9c0 .027 0 .053 0 .08A6.951 6.951 0 0032 16a6.976 6.976 0 00.131 1.334C29.174 18.387 27 21.863 27 26a9.746 9.746 0 003.387 7.71l0 0A54.017 54.017 0 0136.859 29.6L43 18 41.72 29.267h0A111.546 111.546 0 0143.565 41.98l.01.006a11.961 11.961 0 0011-15.109 9.911 9.911 0 00-.1-6.066A6 6 0 0059 15zM24.782 35.316h-.006A5.961 5.961 0 0122 36l.874.583A4.773 4.773 0 0124.2 43.2L23 45l-.677-2.033a7.651 7.651 0 00-.889-1.816A4.83 4.83 0 0017.414 39 3.414 3.414 0 0014 42.414V46l-2.08-1.56a4.8 4.8 0 01-.96-6.72L13 35c-.16-.032-.311-.089-.467-.13l-.087 0C6.347 36.842 2 41.977 2 48c0 7.732 7.163 14 16 14s16-6.268 16-14C34 42.389 30.228 37.55 24.782 35.316z"></path><path fill="#af404a" d="M59.759,13.218a7.014,7.014,0,0,0-1.83-3.179A7.008,7.008,0,0,0,50.891,4a6.967,6.967,0,0,0-10.273.547A7.979,7.979,0,0,0,26.283,6.883,12.977,12.977,0,0,0,19.48,25H15a1,1,0,0,0-.977,1.217l.837,3.765a18.025,18.025,0,0,1-7.413-1.877A1,1,0,0,0,6.02,29.2,8.61,8.61,0,0,0,9.9,34.812C4.5,37.4,1,42.464,1,48c0,8.271,7.626,15,17,15a18.712,18.712,0,0,0,7.745-1.663,8.9,8.9,0,0,0,10.821-.355l.031,0A9.162,9.162,0,0,0,45,51.726c0-.242-.008-.484-.009-.726H45a5.931,5.931,0,0,0,4.457-2.01A11.012,11.012,0,0,0,60,38a10.86,10.86,0,0,0-.178-1.932,6.981,6.981,0,0,0,1.152-8.709A11.027,11.027,0,0,0,63,21,10.885,10.885,0,0,0,59.759,13.218Zm-32.3-4.634a1,1,0,0,0,.659-.753A5.99,5.99,0,0,1,39.463,6.555,7.093,7.093,0,0,0,39.083,8,7.988,7.988,0,0,0,31,16c0,.237.011.477.033.717C28.033,18.212,26,21.9,26,26q0,.55.047,1.086l1.992-.172c-.025-.3-.039-.605-.039-.914,0-3.611,1.837-6.787,4.466-7.724a1,1,0,0,0,.646-1.132A5.991,5.991,0,0,1,39,10a5.9,5.9,0,0,1,.861.07,1.029,1.029,0,0,0,.8-.274A1.083,1.083,0,0,0,41,9a4.994,4.994,0,0,1,8.738-3.311.989.989,0,0,0,.831.333C50.712,6.011,50.855,6,51,6a5.022,5.022,0,0,1,4.979,4.6,1,1,0,0,0,.333.668,4.988,4.988,0,0,1-2.085,8.578,1,1,0,0,0-.7,1.289,8.918,8.918,0,0,1,.093,5.46,1.01,1.01,0,0,0-.008.548A10.951,10.951,0,0,1,44.472,40.9q-.395-4.074-1.083-8.11a16.252,16.252,0,0,0,6.559-8.471l-1.9-.632A14.274,14.274,0,0,1,43,30.634c-.089-.469-.175-.939-.27-1.407L43.947,18.52a18.815,18.815,0,0,0,5.839-7.792l.143-.357-1.858-.742-.142.357A16.833,16.833,0,0,1,42.4,17.2l.007.009a.973.973,0,0,0-.291.323l-3.79,7.16A27.245,27.245,0,0,1,37,16.292V16H35v.292a29.254,29.254,0,0,0,2.06,10.791l-.951,1.8a55.21,55.21,0,0,0-9.216,6.345l-.167-.089A6.965,6.965,0,0,0,29,30a1,1,0,0,0-1.707-.707l-1.069,1.069a5.643,5.643,0,0,1-5.482,1.41l1.174-5.284.01-.012a1,1,0,0,0,.046-1.2A10.992,10.992,0,0,1,27.455,8.584Zm2.451,28.722c-.389-.339-.8-.659-1.226-.964a53.272,53.272,0,0,1,5.248-3.835A32.086,32.086,0,0,1,29.906,37.306ZM19.753,27,18.24,33.806a.255.255,0,0,1-.48,0L16.247,27ZM8.741,30.828a20.065,20.065,0,0,0,6.566,1.165l.5,2.247a2.246,2.246,0,0,0,4.386,0l.112-.5a7.7,7.7,0,0,0,5.659-.692A5,5,0,0,1,22,35a1,1,0,0,0-.555,1.832l.874.583a3.771,3.771,0,0,1,1.047,5.232l-.064.1-.031-.092a8.624,8.624,0,0,0-1-2.055A5.823,5.823,0,0,0,17.414,38,4.415,4.415,0,0,0,13,42.414V44l-.479-.359a3.8,3.8,0,0,1-.761-5.322L13.8,35.6a1,1,0,0,0-.6-1.58A6.636,6.636,0,0,1,8.741,30.828ZM3,48c0-4.632,2.892-8.889,7.4-11.2l-.239.319a5.8,5.8,0,0,0,1.16,8.12L13.4,46.8a1,1,0,0,0,.6.2,1,1,0,0,0,1-1V42.414A2.414,2.414,0,0,1,17.414,40a3.829,3.829,0,0,1,3.189,1.7,6.7,6.7,0,0,1,.771,1.579l.678,2.032a1,1,0,0,0,1.78.239l1.2-1.8a5.773,5.773,0,0,0-.622-7.184c.126-.046.241-.113.364-.166C29.78,38.612,33,43.12,33,48c0,7.168-6.729,13-15,13S3,55.168,3,48ZM27.8,60.233a16.592,16.592,0,0,0,2.958-2.356,6.956,6.956,0,0,1,1.872,2.9,6.749,6.749,0,0,1-4.83-.548Zm6.679-.219a8.947,8.947,0,0,0-2.392-3.631A13.714,13.714,0,0,0,35,48a13.955,13.955,0,0,0-3.674-9.289,34.05,34.05,0,0,0,6.267-8.361l3.816-7.208-3.6,31.714A6.917,6.917,0,0,1,34.483,60.014Zm4.225-1.582a8.9,8.9,0,0,0,1.084-3.349l2.127-18.72A110.848,110.848,0,0,1,43,51.726,7.291,7.291,0,0,1,38.708,58.432ZM58.949,27.943a4.983,4.983,0,0,1-.846,6.973,1,1,0,0,0-.353,1.013A8.967,8.967,0,0,1,48.98,47h0a1,1,0,0,0-.8.4A3.968,3.968,0,0,1,45,49c-.012,0-.023,0-.035,0q-.074-3.056-.317-6.109a12.945,12.945,0,0,0,10.963-16,10.891,10.891,0,0,0,.086-5.436,6.973,6.973,0,0,0,4.115-4.927A9,9,0,0,1,58.966,26.7,1,1,0,0,0,58.949,27.943Z"></path></svg>