<svg xmlns="http://www.w3.org/2000/svg" width="91" height="91" id="cold-drinks"><path d="m67.962 29.554-.672-3.596a1.378 1.378 0 0 0-.027-.115 2.142 2.142 0 0 0-2.066-1.541H39.732c-.011-.061-.005-.12-.026-.18l-7.5-21a1.125 1.125 0 0 0-2.12.756l7.294 20.424h-7.519c-.947 0-1.798.633-2.067 1.539a.767.767 0 0 0-.027.115l-.671 3.599a2.16 2.16 0 0 0-1.575 2.076v4.536c0 1.189.968 2.156 2.156 2.156h.773l4.575 49.28a1.125 1.125 0 0 0 1.12 1.021h25.5c.57 0 1.05-.427 1.117-.993l5.83-49.308h.787a2.159 2.159 0 0 0 2.156-2.156V31.63a2.158 2.158 0 0 0-1.573-2.076zm-38.018-3.002h35.168l.546 2.923H29.399l.545-2.923zm.767 11.771H46.92c.075.062.145.13.237.172.024.011 2.476 1.159 3.56 4.548 1.35 4.222-.057 10.114-4.067 17.042-6.772 11.698-1.518 23.012.311 26.29H35.172l-4.461-48.052zm36.576-2.249h-1.693c-.57 0-1.05.427-1.117.993l-5.83 49.308h-9.128c-.032-.106-.064-.214-.13-.312-.081-.121-8.073-12.274-.792-24.852 4.399-7.599 5.834-13.941 4.263-18.854-.575-1.801-1.474-3.109-2.336-4.035h10.623a1.125 1.125 0 0 0 0-2.25H27.772v-4.349h39.516v4.351z"></path></svg>