<svg xmlns="http://www.w3.org/2000/svg" viewBox="0 0 100 100" id="onion"><path d="M50 89.702c-15.641 0-27.922-6.477-34.581-18.238-6.179-10.914-6.582-25.64-.957-35.014 4.844-8.074 13.161-14.068 20.499-19.357C41.052 12.702 46.806 8.555 48.626 4.4a1.5 1.5 0 0 1 2.748-.002c1.82 4.155 7.574 8.303 13.665 12.693 7.338 5.289 15.655 11.284 20.499 19.358 5.625 9.374 5.222 24.1-.957 35.014C77.922 83.225 65.641 89.702 50 89.702zm0-81.689c-2.743 3.914-7.696 7.484-13.285 11.513-7.103 5.12-15.154 10.923-19.681 18.467-4.376 7.294-5.44 20.626.996 31.993C24.133 80.765 35.487 86.702 50 86.702s25.867-5.937 31.97-16.716c6.436-11.367 5.372-24.698.996-31.992-4.527-7.545-12.578-13.348-19.681-18.468C57.696 15.497 52.743 11.927 50 8.013z"></path><path d="M50 89.702c-.147 0-.295-.021-.441-.066-30.392-9.347-28.562-34.203-26.366-44.456 2.315-10.805 8.704-17.407 14.339-23.232 5.015-5.183 9.752-10.079 10.989-17.205a1.499 1.499 0 0 1 2.972.392c-.508 5.619-2.647 11.794-4.912 18.333-5.972 17.243-13.404 38.702 4.636 63.86A1.5 1.5 0 0 1 50 89.702zm-4.675-71.826c-1.726 2.116-3.66 4.116-5.636 6.158-5.617 5.806-11.426 11.809-13.562 21.774-2.376 11.086-2.673 30.378 20.098 39.477-15.652-24.768-8.377-45.765-2.478-62.8a399.898 399.898 0 0 0 1.578-4.609z"></path><path d="M50 89.702a1.5 1.5 0 0 1-1.219-2.374c18.041-25.158 10.608-46.617 4.636-63.86-2.265-6.539-4.404-12.714-4.912-18.333a1.5 1.5 0 0 1 2.972-.392c1.237 7.126 5.974 12.021 10.989 17.205 5.636 5.825 12.024 12.427 14.339 23.232 2.197 10.253 4.026 35.109-26.366 44.456a1.503 1.503 0 0 1-.439.066zm4.675-71.826a427.02 427.02 0 0 0 1.577 4.609c5.9 17.035 13.174 38.032-2.478 62.8 22.771-9.099 22.474-28.391 20.098-39.477-2.135-9.965-7.944-15.969-13.562-21.774-1.975-2.042-3.909-4.042-5.635-6.158z"></path><path d="M45.194 93.826a1.5 1.5 0 0 1-.977-2.638l4.807-4.124a1.497 1.497 0 0 1 2.115.162 1.5 1.5 0 0 1-.162 2.115l-4.807 4.124c-.283.242-.63.361-.976.361z"></path><path d="M54.806 93.826c-.346 0-.693-.119-.976-.362l-4.807-4.124a1.5 1.5 0 0 1 1.953-2.277l4.807 4.124a1.5 1.5 0 0 1-.977 2.639z"></path><path d="M50 96.5a1.5 1.5 0 0 1-1.5-1.5v-6.798a1.5 1.5 0 1 1 3 0V95a1.5 1.5 0 0 1-1.5 1.5z"></path></svg>