<svg xmlns="http://www.w3.org/2000/svg" width="512" height="512" enable-background="new 0 0 512 512" viewBox="0 0 512 512" id="potato"><path d="M157.982,484.966c-4.118,0-8.194-0.196-12.117-0.581c-24.732-2.432-60.349-8.399-84.012-32.062
				c-22.739-22.74-28.725-56.88-31.399-84.082c-2.639-26.846,0.903-55.956,10.525-86.521c1.536-4.88,2.995-9.827,4.539-15.064
				c6.291-21.329,13.42-45.503,27.112-66.89c10.308-16.099,25.432-29.372,40.059-42.207c7.262-6.373,14.771-12.963,21.676-19.868
				c20.027-20.027,41.588-40.865,65.593-56.234c30.039-19.232,54.793-31.578,77.904-38.854c23.93-7.532,51.572-15.568,76.787-15.568
				c3.728,0,7.39,0.174,10.884,0.518c27.264,2.68,53.044,16.509,78.813,42.277c19.96,19.96,31.268,45.99,34.569,79.576
				c0.271,2.766,0.566,5.576,0.866,8.426c2.572,24.485,5.488,52.237-3.265,80.042c-8.649,27.476-26.619,55.542-41.059,78.095
				c-15.705,24.532-34.127,47.432-54.755,68.06c-21.173,21.172-45.165,36.53-68.367,51.384l-1.313,0.84
				c-26.483,16.955-53.743,26.258-79.394,34.332C207.897,478.053,182.549,484.966,157.982,484.966z M354.65,41.035
				c-23.229,0-49.646,7.703-72.584,14.922c-21.898,6.894-45.59,18.743-74.559,37.29c-22.844,14.626-42.95,34.052-63.242,54.344
				c-7.227,7.228-14.911,13.97-22.341,20.491c-14.534,12.754-28.262,24.801-37.502,39.233
				c-12.618,19.708-19.154,41.87-25.475,63.301c-1.563,5.301-3.04,10.307-4.613,15.308c-9.053,28.757-12.399,55.992-9.947,80.949
				c2.598,26.425,7.881,56.066,27.366,75.551c20.487,20.487,52.89,25.809,75.481,28.028c3.47,0.342,7.085,0.515,10.748,0.515
				c22.676,0,46.777-6.603,69.445-13.736c24.752-7.792,51.012-16.74,76.048-32.77l1.313-0.84
				c22.574-14.451,45.916-29.395,66.017-49.493c19.915-19.915,37.701-42.022,52.863-65.708
				c17.794-27.792,32.001-50.943,39.496-74.75c7.879-25.03,5.125-51.245,2.695-74.375c-0.303-2.881-0.602-5.723-0.877-8.52
				c-3.012-30.649-12.715-53.225-30.536-71.045c-23.384-23.384-46.373-35.894-70.281-38.244
				C361.124,41.186,357.923,41.035,354.65,41.035z"></path><path d="M157.982,484.966c-4.118,0-8.194-0.196-12.117-0.581c-24.732-2.432-60.349-8.399-84.012-32.062
				c-22.739-22.74-28.725-56.88-31.399-84.082c-2.639-26.846,0.903-55.956,10.525-86.521c1.536-4.88,2.995-9.827,4.539-15.064
				c6.291-21.329,13.42-45.503,27.112-66.89c10.308-16.099,25.432-29.372,40.059-42.207c7.262-6.373,14.771-12.963,21.676-19.868
				c20.027-20.027,41.588-40.865,65.593-56.234c30.039-19.232,54.793-31.578,77.904-38.854c23.93-7.532,51.572-15.568,76.787-15.568
				c3.728,0,7.39,0.174,10.884,0.518c27.264,2.68,53.044,16.509,78.813,42.277c19.96,19.96,31.268,45.99,34.569,79.576
				c0.271,2.766,0.566,5.576,0.866,8.426c2.572,24.485,5.488,52.237-3.265,80.042c-8.649,27.476-26.619,55.542-41.059,78.095
				c-15.705,24.532-34.127,47.432-54.755,68.06c-21.173,21.172-45.165,36.53-68.367,51.384l-1.313,0.84
				c-26.483,16.955-53.743,26.258-79.394,34.332C207.897,478.053,182.549,484.966,157.982,484.966z M354.65,41.035
				c-23.229,0-49.646,7.703-72.584,14.922c-21.898,6.894-45.59,18.743-74.559,37.29c-22.844,14.626-42.95,34.052-63.242,54.344
				c-7.227,7.228-14.911,13.97-22.341,20.491c-14.534,12.754-28.262,24.801-37.502,39.233
				c-12.618,19.708-19.154,41.87-25.475,63.301c-1.563,5.301-3.04,10.307-4.613,15.308c-9.053,28.757-12.399,55.992-9.947,80.949
				c2.598,26.425,7.881,56.066,27.366,75.551c20.487,20.487,52.89,25.809,75.481,28.028c3.47,0.342,7.085,0.515,10.748,0.515
				c22.676,0,46.777-6.603,69.445-13.736c24.752-7.792,51.012-16.74,76.048-32.77l1.313-0.84
				c22.574-14.451,45.916-29.395,66.017-49.493c19.915-19.915,37.701-42.022,52.863-65.708
				c17.794-27.792,32.001-50.943,39.496-74.75c7.879-25.03,5.125-51.245,2.695-74.375c-0.303-2.881-0.602-5.723-0.877-8.52
				c-3.012-30.649-12.715-53.225-30.536-71.045c-23.384-23.384-46.373-35.894-70.281-38.244
				C361.124,41.186,357.923,41.035,354.65,41.035z"></path><path d="M291.96 131.067c-1.791 0-3.583-.684-4.95-2.05l-19.729-19.729c-2.733-2.733-2.733-7.166 0-9.899 2.734-2.733 7.166-2.733 9.9 0l19.729 19.729c2.733 2.733 2.733 7.166 0 9.899C295.543 130.384 293.751 131.067 291.96 131.067zM408.923 186.026c-1.791 0-3.583-.684-4.95-2.05l-19.729-19.729c-2.733-2.733-2.733-7.166 0-9.899 2.734-2.733 7.166-2.733 9.9 0l19.729 19.729c2.733 2.733 2.733 7.166 0 9.899C412.506 185.343 410.714 186.026 408.923 186.026zM296.188 379.084c-1.791 0-3.583-.684-4.95-2.05l-19.729-19.729c-2.733-2.734-2.733-7.166 0-9.9 2.734-2.732 7.166-2.732 9.9 0l19.729 19.729c2.733 2.734 2.733 7.166 0 9.9C299.771 378.4 297.979 379.084 296.188 379.084zM278.573 221.961c-1.791 0-3.583-.683-4.949-2.05l-19.73-19.729c-2.734-2.733-2.734-7.166 0-9.899 2.733-2.733 7.167-2.734 9.899 0l19.729 19.729c2.734 2.733 2.734 7.166.001 9.899C282.156 221.277 280.364 221.961 278.573 221.961zM172.882 210.687c-1.792 0-3.583-.684-4.95-2.05l-19.729-19.729c-2.734-2.733-2.734-7.166 0-9.899 2.733-2.733 7.166-2.733 9.899 0l19.729 19.729c2.734 2.733 2.734 7.166 0 9.899C176.465 210.003 174.674 210.687 172.882 210.687zM382.147 298.76c-1.791 0-3.583-.684-4.95-2.05l-19.728-19.728c-2.733-2.734-2.733-7.166 0-9.9 2.734-2.732 7.166-2.732 9.9 0l19.728 19.728c2.733 2.734 2.733 7.166 0 9.9C385.73 298.076 383.938 298.76 382.147 298.76zM362.42 108.52c-1.84 0-3.65-.75-4.95-2.05-1.3-1.3-2.05-3.11-2.05-4.95 0-1.84.75-3.65 2.05-4.95s3.11-2.05 4.95-2.05 3.64.75 4.95 2.05c1.3 1.3 2.05 3.11 2.05 4.95 0 1.84-.75 3.65-2.05 4.95C366.06 107.77 364.26 108.52 362.42 108.52zM344.1 198.71c-1.84 0-3.649-.75-4.95-2.05-1.3-1.31-2.05-3.11-2.05-4.95 0-1.84.75-3.65 2.05-4.95 1.301-1.3 3.11-2.05 4.95-2.05s3.641.75 4.95 2.05c1.3 1.3 2.05 3.11 2.05 4.95 0 1.84-.75 3.64-2.05 4.95C347.75 197.96 345.939 198.71 344.1 198.71zM299.71 283.97c-1.84 0-3.65-.75-4.95-2.05-1.3-1.311-2.05-3.11-2.05-4.96 0-1.84.75-3.641 2.05-4.95 1.3-1.3 3.11-2.04 4.95-2.04s3.649.74 4.95 2.04c1.3 1.31 2.05 3.11 2.05 4.95 0 1.85-.75 3.649-2.05 4.96C303.35 283.22 301.55 283.97 299.71 283.97zM221.5 266.35c-1.84 0-3.65-.75-4.95-2.05-1.3-1.31-2.05-3.11-2.05-4.95s.75-3.65 2.05-4.95c1.3-1.3 3.1-2.05 4.95-2.05 1.84 0 3.65.75 4.95 2.05 1.3 1.3 2.05 3.11 2.05 4.95s-.75 3.641-2.05 4.95C225.15 265.6 223.34 266.35 221.5 266.35zM198.95 343.859c-1.84 0-3.64-.75-4.95-2.05-1.3-1.31-2.05-3.109-2.05-4.95 0-1.85.75-3.649 2.05-4.96 1.31-1.3 3.11-2.05 4.95-2.05 1.85 0 3.65.75 4.95 2.05 1.31 1.311 2.05 3.11 2.05 4.96 0 1.841-.74 3.641-2.05 4.95C202.6 343.109 200.8 343.859 198.95 343.859zM223.61 412.2c-1.84 0-3.64-.75-4.95-2.051-1.3-1.31-2.05-3.109-2.05-4.949 0-1.841.75-3.65 2.05-4.95 1.31-1.3 3.11-2.05 4.95-2.05 1.85 0 3.65.75 4.95 2.05 1.31 1.3 2.05 3.109 2.05 4.95 0 1.84-.74 3.64-2.05 4.949C227.26 411.45 225.46 412.2 223.61 412.2zM335.64 357.95c-1.84 0-3.64-.75-4.95-2.051-1.3-1.31-2.05-3.109-2.05-4.96 0-1.84.75-3.64 2.05-4.939 1.311-1.311 3.11-2.061 4.95-2.061 1.851 0 3.65.75 4.95 2.061 1.31 1.3 2.05 3.1 2.05 4.939 0 1.851-.74 3.65-2.05 4.96C339.29 357.2 337.479 357.95 335.64 357.95zM425.83 235.35c-1.84 0-3.641-.75-4.95-2.05-1.3-1.31-2.05-3.11-2.05-4.95 0-1.84.75-3.65 2.05-4.95 1.31-1.31 3.11-2.05 4.95-2.05s3.649.74 4.95 2.05c1.31 1.3 2.05 3.11 2.05 4.95 0 1.84-.74 3.64-2.05 4.95C429.479 234.6 427.67 235.35 425.83 235.35zM108.06 362.88c-1.84 0-3.65-.75-4.95-2.05-1.3-1.311-2.05-3.11-2.05-4.95 0-1.85.75-3.65 2.05-4.95s3.11-2.05 4.95-2.05c1.84 0 3.65.75 4.95 2.05 1.3 1.3 2.05 3.101 2.05 4.95 0 1.84-.75 3.64-2.05 4.95C111.71 362.13 109.9 362.88 108.06 362.88zM149.63 264.939c-1.84 0-3.64-.75-4.95-2.05-1.3-1.3-2.05-3.109-2.05-4.95 0-1.84.75-3.649 2.05-4.95 1.31-1.3 3.11-2.05 4.95-2.05s3.65.75 4.95 2.05c1.31 1.3 2.05 3.11 2.05 4.95 0 1.841-.74 3.65-2.05 4.95C153.28 264.189 151.47 264.939 149.63 264.939zM228.54 155.02c-1.84 0-3.64-.74-4.95-2.05-1.3-1.3-2.04-3.1-2.04-4.95 0-1.84.74-3.64 2.04-4.95 1.31-1.3 3.11-2.05 4.95-2.05 1.85 0 3.65.75 4.96 2.05 1.3 1.31 2.04 3.11 2.04 4.95 0 1.85-.74 3.65-2.04 4.95C232.19 154.28 230.39 155.02 228.54 155.02zM132.721 321.306c-1.792 0-3.583-.684-4.95-2.05l-19.729-19.728c-2.734-2.734-2.734-7.166 0-9.899 2.733-2.734 7.165-2.733 9.899-.001l19.729 19.728c2.734 2.734 2.734 7.166 0 9.899C136.304 320.622 134.513 321.306 132.721 321.306z"></path><g><path d="M168.655,446.021c-1.792,0-3.583-0.684-4.95-2.05l-19.728-19.728c-2.734-2.734-2.734-7.166,0-9.899
			c2.733-2.734,7.166-2.733,9.899-0.001l19.728,19.728c2.734,2.734,2.734,7.166,0,9.899
			C172.238,445.337,170.447,446.021,168.655,446.021z"></path></g></svg>